<?xml version="1.0" standalone="no"?>
<!DOCTYPE svg PUBLIC "-//W3C//DTD SVG 20010904//EN"
 "http://www.w3.org/TR/2001/REC-SVG-20010904/DTD/svg10.dtd">
<svg version="1.0" xmlns="http://www.w3.org/2000/svg"
 width="1024.000000pt" height="1024.000000pt" viewBox="0 0 1024.000000 1024.000000"
 preserveAspectRatio="xMidYMid meet">
<metadata>
Created by potrace 1.14, written by Peter Selinger 2001-2017
</metadata>
<g transform="translate(0.000000,1024.000000) scale(0.100000,-0.100000)"
fill="#000000" stroke="none">
<path d="M5505 9268 c-82 -4 -162 -9 -177 -9 -16 -1 -28 -6 -28 -11 0 -5 -8
-8 -17 -6 -10 1 -24 -1 -30 -5 -7 -5 -13 -6 -13 -3 0 2 -15 0 -32 -6 -18 -5
-40 -11 -48 -13 -8 -1 -28 -8 -45 -14 -16 -7 -38 -13 -47 -14 -10 -1 -18 -5
-18 -9 0 -4 -9 -8 -19 -8 -11 0 -22 -4 -25 -9 -5 -8 -110 -61 -121 -61 -3 0
-15 -9 -27 -20 -12 -11 -27 -20 -34 -20 -7 0 -14 -3 -16 -7 -4 -11 -78 -65
-78 -58 0 3 -48 -43 -107 -102 -146 -146 -239 -285 -303 -448 -13 -33 -26 -64
-30 -68 -4 -5 -602 -9 -1329 -9 l-1321 0 0 -955 0 -956 -29 -51 c-113 -201
-115 -442 -5 -644 l34 -63 0 -258 0 -258 -43 -17 c-56 -21 -153 -95 -195 -148
-66 -84 -62 -72 -262 -688 -140 -431 -202 -622 -285 -874 -59 -179 -65 -206
-65 -280 0 -95 21 -150 78 -210 149 -155 410 -115 501 77 16 34 42 105 58 157
l28 95 5 -1185 5 -1185 30 -54 c33 -59 87 -111 150 -141 32 -15 62 -20 131
-20 86 0 93 2 150 36 67 40 93 67 132 139 l27 50 0 952 0 953 112 0 113 0 2
-947 3 -948 26 -55 c32 -68 85 -122 149 -155 68 -35 201 -36 269 -3 66 32 135
107 160 173 21 55 21 68 21 1070 l0 1015 510 0 c281 0 510 -3 510 -6 0 -3 -7
-18 -15 -32 -8 -15 -28 -58 -46 -97 -17 -38 -58 -126 -91 -195 -33 -69 -75
-159 -95 -200 -19 -41 -47 -102 -63 -135 -168 -355 -172 -365 -176 -454 -4
-115 36 -206 129 -291 22 -19 42 -35 45 -36 4 0 21 -7 37 -14 17 -7 33 -13 38
-12 4 1 7 -3 7 -9 0 -6 7 -9 15 -6 8 4 16 3 19 -1 4 -7 126 -7 156 0 46 11
135 62 174 101 43 43 77 106 196 362 16 33 52 110 80 170 29 61 65 137 80 170
30 65 85 183 145 310 128 270 177 370 184 375 10 6 1539 5 1545 -1 3 -4 44
-91 178 -379 21 -47 43 -93 49 -102 5 -10 40 -84 78 -165 38 -82 88 -188 111
-238 99 -211 110 -235 111 -240 2 -27 117 -228 146 -257 55 -53 67 -64 76 -66
4 -1 20 -8 36 -16 16 -9 31 -12 35 -9 3 4 6 1 6 -6 0 -7 5 -9 10 -6 6 3 15 3
22 -1 17 -11 140 -12 154 -2 6 4 19 9 30 11 28 4 91 37 105 53 6 8 17 14 23
14 16 0 87 102 109 157 17 44 31 193 17 193 -3 0 -6 9 -7 20 -2 23 -31 86
-242 535 -26 55 -72 152 -102 215 -29 63 -72 153 -95 200 l-41 85 1163 3 1164
2 0 2689 0 2689 -1262 1 c-695 0 -1293 0 -1330 1 l-66 0 -18 53 c-45 135 -177
340 -299 462 -60 59 -150 135 -162 135 -7 0 -13 7 -13 15 0 8 -3 14 -7 13 -9
-3 -40 14 -98 51 -22 14 -42 26 -45 26 -3 1 -35 15 -72 33 -37 18 -74 32 -82
32 -8 0 -18 5 -21 10 -4 6 -11 8 -16 5 -5 -4 -9 -2 -9 4 0 6 -7 8 -15 5 -8 -4
-15 -1 -15 6 0 6 -4 9 -9 6 -5 -4 -20 -2 -34 3 -26 10 -83 22 -107 22 -8 1
-22 3 -30 6 -8 3 -26 6 -40 8 -14 1 -32 4 -40 7 -8 2 -82 1 -165 -4z m202
-501 c12 -2 25 -6 29 -9 3 -4 12 -4 20 -1 8 3 14 0 14 -7 0 -6 6 -10 13 -7 6
2 27 -2 45 -9 17 -7 32 -10 32 -7 0 4 7 -2 16 -13 8 -10 13 -14 10 -8 -11 22
131 -61 197 -116 52 -42 137 -135 137 -150 0 -5 4 -10 8 -10 4 0 16 -13 25
-30 l18 -30 -63 0 c-35 -1 -361 -2 -725 -3 -611 -2 -660 -1 -652 14 33 62 205
247 218 234 2 -3 10 4 18 15 8 11 20 20 28 20 7 0 20 6 27 13 21 18 78 47 94
47 8 0 14 5 14 12 0 6 3 9 6 5 3 -3 25 3 49 13 24 10 46 16 48 13 3 -3 12 -1
19 3 14 9 15 9 107 18 36 4 66 8 68 9 2 3 137 -9 180 -16z"/>
</g>
</svg>
